<?xml version="1.0" encoding="UTF-8"?>
<svg version="1.1" xmlns="http://www.w3.org/2000/svg" width="1560" height="1560">
<path d="M0 0 C0 0.66 0 1.32 0 2 C1.65 2 3.3 2 5 2 C5 2.66 5 3.32 5 4 C6.98 4 8.96 4 11 4 C11 4.66 11 5.32 11 6 C11.99 6 12.98 6 14 6 C14 6.66 14 7.32 14 8 C16.31 8.33 18.62 8.66 21 9 C21 9.66 21 10.32 21 11 C21.66 11 22.32 11 23 11 C23 11.66 23 12.32 23 13 C24.32 13 25.64 13 27 13 C27 13.66 27 14.32 27 15 C28.32 15 29.64 15 31 15 C32.75 16.375 32.75 16.375 34 18 C34 18.66 34 19.32 34 20 C35.32 20 36.64 20 38 20 C38 20.66 38 21.32 38 22 C38.66 22 39.32 22 40 22 C40.33 23.32 40.66 24.64 41 26 C41.66 26 42.32 26 43 26 C43 26.66 43 27.32 43 28 C44.32 28.33 45.64 28.66 47 29 C47 29.66 47 30.32 47 31 C47.66 31 48.32 31 49 31 C49.33 32.32 49.66 33.64 50 35 C50.66 35 51.32 35 52 35 C52 35.66 52 36.32 52 37 C53.32 37.33 54.64 37.66 56 38 C56 38.66 56 39.32 56 40 C56.66 40 57.32 40 58 40 C58 40.66 58 41.32 58 42 C58.66 42 59.32 42 60 42 C60.33 43.32 60.66 44.64 61 46 C62.32 46.33 63.64 46.66 65 47 C65 47.66 65 48.32 65 49 C65.66 49 66.32 49 67 49 C67 50.32 67 51.64 67 53 C67.66 53 68.32 53 69 53 C69.33 54.32 69.66 55.64 70 57 C71.32 57.33 72.64 57.66 74 58 C74 59.32 74 60.64 74 62 C74.66 62 75.32 62 76 62 C76 62.66 76 63.32 76 64 C76.66 64 77.32 64 78 64 C78.33 65.65 78.66 67.3 79 69 C79.66 69 80.32 69 81 69 C81 69.66 81 70.32 81 71 C81.66 71 82.32 71 83 71 C83 71.66 83 72.32 83 73 C83.66 73 84.32 73 85 73 C85 73.99 85 74.98 85 76 C85.66 76 86.32 76 87 76 C87 76.66 87 77.32 87 78 C87.66 78 88.32 78 89 78 C89.33 79.98 89.66 81.96 90 84 C90.66 84 91.32 84 92 84 C92 84.99 92 85.98 92 87 C92.66 87 93.32 87 94 87 C94 87.66 94 88.32 94 89 C94.66 89 95.32 89 96 89 C96 90.32 96 91.64 96 93 C96.66 93 97.32 93 98 93 C98.33 94.65 98.66 96.3 99 98 C99.66 98 100.32 98 101 98 C101 98.66 101 99.32 101 100 C101.66 100 102.32 100 103 100 C103 101.32 103 102.64 103 104 C103.66 104 104.32 104 105 104 C105 104.99 105 105.98 105 107 C105.66 107 106.32 107 107 107 C107.33 108.98 107.66 110.96 108 113 C108.66 113 109.32 113 110 113 C110 113.99 110 114.98 110 116 C110.66 116 111.32 116 112 116 C112 116.66 112 117.32 112 118 C112.66 118 113.32 118 114 118 C114 119.32 114 120.64 114 122 C114.66 122 115.32 122 116 122 C116 122.99 116 123.98 116 125 C116.66 125 117.32 125 118 125 C118.33 127.64 118.66 130.28 119 133 C120.32 133.33 121.64 133.66 123 134 C123 135.32 123 136.64 123 138 C123.66 138 124.32 138 125 138 C125 139.32 125 140.64 125 142 C125.66 142 126.32 142 127 142 C127.33 144.31 127.66 146.62 128 149 C128.66 149 129.32 149 130 149 C130 150.32 130 151.64 130 153 C130.66 153 131.32 153 132 153 C132 153.99 132 154.98 132 156 C132.66 156 133.32 156 134 156 C134 157.32 134 158.64 134 160 C134.66 160 135.32 160 136 160 C136 160.99 136 161.98 136 163 C136.66 163 137.32 163 138 163 C138.33 165.64 138.66 168.28 139 171 C139.66 171 140.32 171 141 171 C141 171.99 141 172.98 141 174 C141.66 174 142.32 174 143 174 C143 175.32 143 176.64 143 178 C143.66 178 144.32 178 145 178 C145 179.32 145 180.64 145 182 C145.66 182 146.32 182 147 182 C147.33 184.31 147.66 186.62 148 189 C148.66 189 149.32 189 150 189 C150 189.99 150 190.98 150 192 C150.66 192 151.32 192 152 192 C152 193.98 152 195.96 152 198 C152.66 198 153.32 198 154 198 C154 199.32 154 200.64 154 202 C154.66 202 155.32 202 156 202 C156.33 204.31 156.66 206.62 157 209 C157.66 209 158.32 209 159 209 C159 209.99 159 210.98 159 212 C159.66 212 160.32 212 161 212 C161 213.98 161 215.96 161 218 C161.66 218 162.32 218 163 218 C163 218.99 163 219.98 163 221 C163.66 221 164.32 221 165 221 C165 222.32 165 223.64 165 225 C165.66 225 166.32 225 167 225 C167.33 227.97 167.66 230.94 168 234 C168.66 234 169.32 234 170 234 C170 235.32 170 236.64 170 238 C170.66 238 171.32 238 172 238 C172 238.99 172 239.98 172 241 C172.66 241 173.32 241 174 241 C174 242.98 174 244.96 174 247 C174.66 247 175.32 247 176 247 C176.33 249.97 176.66 252.94 177 256 C177.66 256 178.32 256 179 256 C179 257.32 179 258.64 179 260 C179.66 260 180.32 260 181 260 C181 260.99 181 261.98 181 263 C181.66 263 182.32 263 183 263 C183 264.98 183 266.96 183 269 C183.66 269 184.32 269 185 269 C185.33 271.97 185.66 274.94 186 278 C186.66 278 187.32 278 188 278 C188 278.99 188 279.98 188 281 C188.66 281 189.32 281 190 281 C190 282.98 190 284.96 190 287 C190.66 287 191.32 287 192 287 C192 287.99 192 288.98 192 290 C192.66 290 193.32 290 194 290 C194 291.32 194 292.64 194 294 C194.66 294 195.32 294 196 294 C196.33 296.97 196.66 299.94 197 303 C197.66 303 198.32 303 199 303 C199 304.65 199 306.3 199 308 C199.66 308 200.32 308 201 308 C201 309.32 201 310.64 201 312 C201.66 312 202.32 312 203 312 C203 313.98 203 315.96 203 318 C203.66 318 204.32 318 205 318 C205.33 320.31 205.66 322.62 206 325 C206.66 325 207.32 325 208 325 C208 326.65 208 328.3 208 330 C208.66 330 209.32 330 210 330 C210 331.32 210 332.64 210 334 C210.66 334 211.32 334 212 334 C212 335.65 212 337.3 212 339 C212.66 339 213.32 339 214 339 C214.33 341.97 214.66 344.94 215 348 C215.66 348 216.32 348 217 348 C217 349.32 217 350.64 217 352 C217.66 352 218.32 352 219 352 C219 353.65 219 355.3 219 357 C219.66 357 220.32 357 221 357 C221 358.32 221 359.64 221 361 C221.66 361 222.32 361 223 361 C223 362.65 223 364.3 223 366 C223.66 366 224.32 366 225 366 C225.33 368.64 225.66 371.28 226 374 C226.66 374 227.32 374 228 374 C228 375.65 228 377.3 228 379 C228.66 379 229.32 379 230 379 C230 380.32 230 381.64 230 383 C230.66 383 231.32 383 232 383 C232 384.65 232 386.3 232 388 C232.66 388 233.32 388 234 388 C234.33 390.97 234.66 393.94 235 397 C235.66 397 236.32 397 237 397 C237 398.32 237 399.64 237 401 C237.66 401 238.32 401 239 401 C239 402.65 239 404.3 239 406 C239.66 406 240.32 406 241 406 C241 407.32 241 408.64 241 410 C241.66 410 242.32 410 243 410 C243.33 412.97 243.66 415.94 244 419 C244.66 419 245.32 419 246 419 C246 420.98 246 422.96 246 425 C246.66 425 247.32 425 248 425 C248 425.99 248 426.98 248 428 C248.66 428 249.32 428 250 428 C250 429.98 250 431.96 250 434 C250.66 434 251.32 434 252 434 C252 434.99 252 435.98 252 437 C252.66 437 253.32 437 254 437 C254.33 439.97 254.66 442.94 255 446 C255.66 446 256.32 446 257 446 C257 447.32 257 448.64 257 450 C257.66 450 258.32 450 259 450 C259 451.65 259 453.3 259 455 C259.66 455 260.32 455 261 455 C261 456.32 261 457.64 261 459 C261.66 459 262.32 459 263 459 C263.33 461.97 263.66 464.94 264 468 C264.66 468 265.32 468 266 468 C266 469.65 266 471.3 266 473 C266.66 473 267.32 473 268 473 C268 474.32 268 475.64 268 477 C268.66 477 269.32 477 270 477 C270 478.98 270 480.96 270 483 C270.66 483 271.32 483 272 483 C272.33 485.97 272.66 488.94 273 492 C273.66 492 274.32 492 275 492 C275 492.99 275 493.98 275 495 C275.66 495 276.32 495 277 495 C277 496.98 277 498.96 277 501 C277.66 501 278.32 501 279 501 C279 501.99 279 502.98 279 504 C279.66 504 280.32 504 281 504 C281 505.98 281 507.96 281 510 C281.66 510 282.32 510 283 510 C283.33 512.97 283.66 515.94 284 519 C284.66 519 285.32 519 286 519 C286 519.99 286 520.98 286 522 C286.66 522 287.32 522 288 522 C288 523.98 288 525.96 288 528 C288.66 528 289.32 528 290 528 C290 528.99 290 529.98 290 531 C290.66 531 291.32 531 292 531 C292.33 534.3 292.66 537.6 293 541 C293.66 541 294.32 541 295 541 C295 542.65 295 544.3 295 546 C295.66 546 296.32 546 297 546 C297 547.32 297 548.64 297 550 C297.66 550 298.32 550 299 550 C299 551.65 299 553.3 299 555 C299.66 555 300.32 555 301 555 C301.33 557.97 301.66 560.94 302 564 C302.66 564 303.32 564 304 564 C304 565.32 304 566.64 304 568 C304.66 568 305.32 568 306 568 C306 569.65 306 571.3 306 573 C306.66 573 307.32 573 308 573 C308 574.32 308 575.64 308 577 C308.66 577 309.32 577 310 577 C310 578.65 310 580.3 310 582 C310.66 582 311.32 582 312 582 C312.33 584.97 312.66 587.94 313 591 C313.66 591 314.32 591 315 591 C315 592.98 315 594.96 315 597 C315.66 597 316.32 597 317 597 C317 597.99 317 598.98 317 600 C317.66 600 318.32 600 319 600 C319 601.98 319 603.96 319 606 C319.66 606 320.32 606 321 606 C321.33 608.97 321.66 611.94 322 615 C322.66 615 323.32 615 324 615 C324 615.99 324 616.98 324 618 C324.66 618 325.32 618 326 618 C326 619.98 326 621.96 326 624 C326.66 624 327.32 624 328 624 C328 625.32 328 626.64 328 628 C328.66 628 329.32 628 330 628 C330.33 631.3 330.66 634.6 331 638 C331.66 638 332.32 638 333 638 C333 639.32 333 640.64 333 642 C333.66 642 334.32 642 335 642 C335 643.65 335 645.3 335 647 C335.66 647 336.32 647 337 647 C337 648.32 337 649.64 337 651 C337.66 651 338.32 651 339 651 C339 652.98 339 654.96 339 657 C339.66 657 340.32 657 341 657 C341.33 659.97 341.66 662.94 342 666 C342.66 666 343.32 666 344 666 C344 667.65 344 669.3 344 671 C344.66 671 345.32 671 346 671 C346 672.32 346 673.64 346 675 C346.66 675 347.32 675 348 675 C348 676.65 348 678.3 348 680 C348.66 680 349.32 680 350 680 C350.33 682.97 350.66 685.94 351 689 C351.66 689 352.32 689 353 689 C353 690.98 353 692.96 353 695 C353.66 695 354.32 695 355 695 C355 695.99 355 696.98 355 698 C355.66 698 356.32 698 357 698 C357 699.98 357 701.96 357 704 C357.66 704 358.32 704 359 704 C359.33 706.97 359.66 709.94 360 713 C360.66 713 361.32 713 362 713 C362 714.65 362 716.3 362 718 C362.66 718 363.32 718 364 718 C364 719.32 364 720.64 364 722 C364.66 722 365.32 722 366 722 C366 723.65 366 725.3 366 727 C366.66 727 367.32 727 368 727 C368 728.98 368 730.96 368 733 C368.66 733 369.32 733 370 733 C370.33 735.97 370.66 738.94 371 742 C371.66 742 372.32 742 373 742 C373 743.65 373 745.3 373 747 C373.66 747 374.32 747 375 747 C375 748.32 375 749.64 375 751 C375.66 751 376.32 751 377 751 C377 752.65 377 754.3 377 756 C377.66 756 378.32 756 379 756 C379.33 758.97 379.66 761.94 380 765 C380.66 765 381.32 765 382 765 C382 766.98 382 768.96 382 771 C382.66 771 383.32 771 384 771 C384 772.65 384 774.3 384 776 C384.66 776 385.32 776 386 776 C386 777.32 386 778.64 386 780 C386.66 780 387.32 780 388 780 C388.33 783.63 388.66 787.26 389 791 C389.66 791 390.32 791 391 791 C391 791.99 391 792.98 391 794 C391.66 794 392.32 794 393 794 C393 795.98 393 797.96 393 800 C393.66 800 394.32 800 395 800 C395 801.65 395 803.3 395 805 C395.66 805 396.32 805 397 805 C397 806.98 397 808.96 397 811 C397.66 811 398.32 811 399 811 C399.33 813.97 399.66 816.94 400 820 C400.66 820 401.32 820 402 820 C402 821.65 402 823.3 402 825 C402.66 825 403.32 825 404 825 C404 826.98 404 828.96 404 831 C404.66 831 405.32 831 406 831 C406 831.99 406 832.98 406 834 C406.66 834 407.32 834 408 834 C408.33 837.63 408.66 841.26 409 845 C409.66 845 410.32 845 411 845 C411 846.65 411 848.3 411 850 C411.66 850 412.32 850 413 850 C413 851.98 413 853.96 413 856 C413.66 856 414.32 856 415 856 C415 857.65 415 859.3 415 861 C415.66 861 416.32 861 417 861 C423.2525864 884.49809213 424.54698203 908.41704033 412.25 930.3125 C402.42278563 945.4042935 389.20389824 954.57667449 371.5625 958.3125 C342.19058918 962.65920519 313.43482322 950.53319614 290.12109375 933.4921875 C286.78368714 930.82727459 283.8924195 928.14034118 281 925 C281 924.34 281 923.68 281 923 C280.34 923 279.68 923 279 923 C279 921.68 279 920.36 279 919 C278.34 919 277.68 919 277 919 C277 917.35 277 915.7 277 914 C276.34 914 275.68 914 275 914 C275 912.68 275 911.36 275 910 C274.34 910 273.68 910 273 910 C272.67 907.03 272.34 904.06 272 901 C271.34 901 270.68 901 270 901 C270 900.01 270 899.02 270 898 C269.34 898 268.68 898 268 898 C268 896.68 268 895.36 268 894 C267.34 894 266.68 894 266 894 C266 892.35 266 890.7 266 889 C265.34 889 264.68 889 264 889 C263.67 885.7 263.34 882.4 263 879 C262.34 879 261.68 879 261 879 C261 877.35 261 875.7 261 874 C260.34 874 259.68 874 259 874 C259 872.35 259 870.7 259 869 C258.34 869 257.68 869 257 869 C257 867.02 257 865.04 257 863 C256.34 863 255.68 863 255 863 C254.67 859.37 254.34 855.74 254 852 C253.34 852 252.68 852 252 852 C252 850.35 252 848.7 252 847 C251.34 847 250.68 847 250 847 C250 845.68 250 844.36 250 843 C249.34 843 248.68 843 248 843 C248 841.35 248 839.7 248 838 C247.34 838 246.68 838 246 838 C246 836.02 246 834.04 246 832 C245.34 832 244.68 832 244 832 C243.67 828.37 243.34 824.74 243 821 C242.34 821 241.68 821 241 821 C241 819.35 241 817.7 241 816 C240.34 816 239.68 816 239 816 C239 814.35 239 812.7 239 811 C238.34 811 237.68 811 237 811 C237 809.02 237 807.04 237 805 C236.34 805 235.68 805 235 805 C234.67 801.37 234.34 797.74 234 794 C233.34 794 232.68 794 232 794 C232 792.35 232 790.7 232 789 C231.34 789 230.68 789 230 789 C230 787.02 230 785.04 230 783 C229.34 783 228.68 783 228 783 C228 781.35 228 779.7 228 778 C227.34 778 226.68 778 226 778 C225.60989746 776.75226807 225.21979492 775.50453613 224.81787109 774.21899414 C222.89930815 768.46772144 220.41291614 763.01397135 217.9140625 757.49609375 C212.74112056 745.90139307 208.0766788 734.16602537 203.59423828 722.29003906 C201.46236975 716.64660653 199.30558281 711.01271611 197.1484375 705.37890625 C196.71569519 704.24824738 196.28295288 703.1175885 195.83709717 701.95266724 C191.6694108 691.08991377 187.37182788 680.2820448 183 669.5 C182.65282928 668.6427533 182.30565857 667.78550659 181.94796753 666.90228271 C178.47818818 658.34856002 174.95425428 649.82241679 171.27734375 641.35546875 C170.9891275 640.69068512 170.70091125 640.02590149 170.40396118 639.3409729 C169.08483609 636.30463344 167.75307858 633.27553957 166.40039062 630.25390625 C165.72073242 628.71089844 165.72073242 628.71089844 165.02734375 627.13671875 C164.63281006 626.25717529 164.23827637 625.37763184 163.83178711 624.47143555 C162.94356298 621.83231233 162.83921785 619.76489533 163 617 C162.34 617 161.68 617 161 617 C161 615.02 161 613.04 161 611 C160.34 611 159.68 611 159 611 C159 609.35 159 607.7 159 606 C158.34 606 157.68 606 157 606 C156.67 602.37 156.34 598.74 156 595 C155.34 595 154.68 595 154 595 C154 593.02 154 591.04 154 589 C153.34 589 152.68 589 152 589 C152 587.35 152 585.7 152 584 C151.34 584 150.68 584 150 584 C150 582.35 150 580.7 150 579 C149.34 579 148.68 579 148 579 C147.67 575.37 147.34 571.74 147 568 C146.34 568 145.68 568 145 568 C145 566.02 145 564.04 145 562 C144.34 562 143.68 562 143 562 C143 560.35 143 558.7 143 557 C142.34 557 141.68 557 141 557 C141 555.02 141 553.04 141 551 C140.34 551 139.68 551 139 551 C138.67 547.7 138.34 544.4 138 541 C137.34 541 136.68 541 136 541 C136 539.02 136 537.04 136 535 C135.34 535 134.68 535 134 535 C134 533.35 134 531.7 134 530 C133.34 530 132.68 530 132 530 C132 528.02 132 526.04 132 524 C131.34 524 130.68 524 130 524 C130 522.35 130 520.7 130 519 C129.34 519 128.68 519 128 519 C127.67 516.03 127.34 513.06 127 510 C126.34 510 125.68 510 125 510 C125 508.02 125 506.04 125 504 C124.34 504 123.68 504 123 504 C123 502.35 123 500.7 123 499 C122.34 499 121.68 499 121 499 C121 497.02 121 495.04 121 493 C120.34 493 119.68 493 119 493 C118.67 489.7 118.34 486.4 118 483 C117.34 483 116.68 483 116 483 C116 481.68 116 480.36 116 479 C115.34 479 114.68 479 114 479 C114 477.02 114 475.04 114 473 C113.34 473 112.68 473 112 473 C112 471.35 112 469.7 112 468 C111.34 468 110.68 468 110 468 C110 466.35 110 464.7 110 463 C109.34 463 108.68 463 108 463 C107.67 460.03 107.34 457.06 107 454 C106.34 454 105.68 454 105 454 C105 452.02 105 450.04 105 448 C104.34 448 103.68 448 103 448 C103 446.68 103 445.36 103 444 C102.34 444 101.68 444 101 444 C101 442.35 101 440.7 101 439 C100.34 439 99.68 439 99 439 C98.67 436.03 98.34 433.06 98 430 C97.34 430 96.68 430 96 430 C96 428.35 96 426.7 96 425 C95.34 425 94.68 425 94 425 C94 423.68 94 422.36 94 421 C93.34 421 92.68 421 92 421 C92 419.02 92 417.04 92 415 C91.34 415 90.68 415 90 415 C89.67 412.03 89.34 409.06 89 406 C88.34 406 87.68 406 87 406 C87 405.01 87 404.02 87 403 C86.34 403 85.68 403 85 403 C85 401.02 85 399.04 85 397 C84.34 397 83.68 397 83 397 C83 396.01 83 395.02 83 394 C82.34 394 81.68 394 81 394 C81 392.02 81 390.04 81 388 C80.34 388 79.68 388 79 388 C78.67 385.69 78.34 383.38 78 381 C77.34 381 76.68 381 76 381 C76 379.35 76 377.7 76 376 C75.34 376 74.68 376 74 376 C74 374.68 74 373.36 74 372 C73.34 372 72.68 372 72 372 C72 370.68 72 369.36 72 368 C71.34 368 70.68 368 70 368 C69.67 365.03 69.34 362.06 69 359 C68.34 359 67.68 359 67 359 C67 358.01 67 357.02 67 356 C66.34 356 65.68 356 65 356 C65 354.68 65 353.36 65 352 C64.34 352 63.68 352 63 352 C63 350.68 63 349.36 63 348 C62.34 348 61.68 348 61 348 C60.67 345.69 60.34 343.38 60 341 C59.34 341 58.68 341 58 341 C58 339.68 58 338.36 58 337 C57.34 337 56.68 337 56 337 C56 336.01 56 335.02 56 334 C55.34 334 54.68 334 54 334 C54 332.68 54 331.36 54 330 C53.34 330 52.68 330 52 330 C52 329.01 52 328.02 52 327 C51.34 327 50.68 327 50 327 C49.67 325.02 49.34 323.04 49 321 C48.34 321 47.68 321 47 321 C47 320.01 47 319.02 47 318 C46.34 318 45.68 318 45 318 C45 316.68 45 315.36 45 314 C44.34 314 43.68 314 43 314 C43 313.34 43 312.68 43 312 C42.34 312 41.68 312 41 312 C40.814375 311.0409375 40.814375 311.0409375 40.625 310.0625 C40.41875 309.381875 40.2125 308.70125 40 308 C39.34 307.67 38.68 307.34 38 307 C38 305.68 38 304.36 38 303 C37.34 303 36.68 303 36 303 C36 302.34 36 301.68 36 301 C35.34 301 34.68 301 34 301 C32.93882745 299.41427057 31.9525663 297.77825208 31 296.125 C20.25936844 278.86010051 2.8845981 269.58630537 -16.40234375 264.54296875 C-45.16796505 258.53030505 -75.6375705 263.68143259 -100.375 279.4375 C-106.19513946 283.28292026 -111.74739977 287.4084413 -117 292 C-118.13695312 292.99386719 -118.13695312 292.99386719 -119.296875 294.0078125 C-130.32864308 304.31680957 -137.49907134 318.53708392 -144 332 C-144 332.66 -144 333.32 -144 334 C-143.06542969 333.39414062 -142.13085938 332.78828125 -141.16796875 332.1640625 C-115.58274809 315.76692276 -81.67526509 295.16758205 -50 300 C-50.33 300.99 -50.66 301.98 -51 303 C-51.66 303 -52.32 303 -53 303 C-53 303.66 -53 304.32 -53 305 C-53.66 305 -54.32 305 -55 305 C-55.33 305.99 -55.66 306.98 -56 308 C-56.66 308 -57.32 308 -58 308 C-58 308.66 -58 309.32 -58 310 C-58.66 310 -59.32 310 -60 310 C-60 311.32 -60 312.64 -60 314 C-60.66 314 -61.32 314 -62 314 C-62 314.66 -62 315.32 -62 316 C-62.66 316 -63.32 316 -64 316 C-64 316.66 -64 317.32 -64 318 C-64.66 318 -65.32 318 -66 318 C-66.33 319.65 -66.66 321.3 -67 323 C-67.66 323 -68.32 323 -69 323 C-69 323.66 -69 324.32 -69 325 C-69.66 325 -70.32 325 -71 325 C-71 325.99 -71 326.98 -71 328 C-71.66 328 -72.32 328 -73 328 C-73 328.66 -73 329.32 -73 330 C-73.66 330 -74.32 330 -75 330 C-75.33 331.98 -75.66 333.96 -76 336 C-76.66 336 -77.32 336 -78 336 C-78 336.99 -78 337.98 -78 339 C-78.66 339 -79.32 339 -80 339 C-80 339.66 -80 340.32 -80 341 C-80.66 341 -81.32 341 -82 341 C-82 342.32 -82 343.64 -82 345 C-82.66 345 -83.32 345 -84 345 C-84.33 346.65 -84.66 348.3 -85 350 C-85.66 350 -86.32 350 -87 350 C-87 351.32 -87 352.64 -87 354 C-87.66 354 -88.32 354 -89 354 C-89 354.66 -89 355.32 -89 356 C-89.66 356 -90.32 356 -91 356 C-91 356.99 -91 357.98 -91 359 C-91.66 359 -92.32 359 -93 359 C-93 360.32 -93 361.64 -93 363 C-93.66 363 -94.32 363 -95 363 C-95.33 364.65 -95.66 366.3 -96 368 C-96.66 368 -97.32 368 -98 368 C-98 369.32 -98 370.64 -98 372 C-98.66 372 -99.32 372 -100 372 C-100 373.32 -100 374.64 -100 376 C-101.32 376.33 -102.64 376.66 -104 377 C-104.33 379.64 -104.66 382.28 -105 385 C-105.66 385 -106.32 385 -107 385 C-107 385.99 -107 386.98 -107 388 C-107.66 388 -108.32 388 -109 388 C-109 389.32 -109 390.64 -109 392 C-109.66 392 -110.32 392 -111 392 C-111 393.32 -111 394.64 -111 396 C-111.66 396 -112.32 396 -113 396 C-113.33 398.31 -113.66 400.62 -114 403 C-114.66 403 -115.32 403 -116 403 C-116 403.99 -116 404.98 -116 406 C-116.66 406 -117.32 406 -118 406 C-118 407.32 -118 408.64 -118 410 C-118.66 410 -119.32 410 -120 410 C-120 410.66 -120 411.32 -120 412 C-120.66 412 -121.32 412 -122 412 C-122 412.99 -122 413.98 -122 415 C-122.66 415 -123.32 415 -124 415 C-124.33 417.64 -124.66 420.28 -125 423 C-125.66 423 -126.32 423 -127 423 C-127 424.65 -127 426.3 -127 428 C-127.66 428 -128.32 428 -129 428 C-129 429.32 -129 430.64 -129 432 C-129.66 432 -130.32 432 -131 432 C-131 432.99 -131 433.98 -131 435 C-131.66 435 -132.32 435 -133 435 C-133.33 437.64 -133.66 440.28 -134 443 C-134.66 443 -135.32 443 -136 443 C-136 443.99 -136 444.98 -136 446 C-136.66 446 -137.32 446 -138 446 C-138 447.32 -138 448.64 -138 450 C-138.66 450 -139.32 450 -140 450 C-140 451.32 -140 452.64 -140 454 C-140.66 454 -141.32 454 -142 454 C-142.33 456.31 -142.66 458.62 -143 461 C-143.66 461 -144.32 461 -145 461 C-145 462.65 -145 464.3 -145 466 C-145.66 466 -146.32 466 -147 466 C-147 467.32 -147 468.64 -147 470 C-147.66 470 -148.32 470 -149 470 C-149 470.99 -149 471.98 -149 473 C-149.66 473 -150.32 473 -151 473 C-151 474.32 -151 475.64 -151 477 C-151.66 477 -152.32 477 -153 477 C-153.33 479.97 -153.66 482.94 -154 486 C-154.66 486 -155.32 486 -156 486 C-156 487.32 -156 488.64 -156 490 C-156.66 490 -157.32 490 -158 490 C-158 490.99 -158 491.98 -158 493 C-158.66 493 -159.32 493 -160 493 C-160 494.32 -160 495.64 -160 497 C-160.66 497 -161.32 497 -162 497 C-162.33 499.97 -162.66 502.94 -163 506 C-163.66 506 -164.32 506 -165 506 C-165 507.32 -165 508.64 -165 510 C-165.66 510 -166.32 510 -167 510 C-167 511.65 -167 513.3 -167 515 C-167.66 515 -168.32 515 -169 515 C-169 516.32 -169 517.64 -169 519 C-169.66 519 -170.32 519 -171 519 C-171.33 521.97 -171.66 524.94 -172 528 C-172.66 528 -173.32 528 -174 528 C-174 528.99 -174 529.98 -174 531 C-174.66 531 -175.32 531 -176 531 C-176 532.32 -176 533.64 -176 535 C-176.66 535 -177.32 535 -178 535 C-178 536.98 -178 538.96 -178 541 C-178.66 541 -179.32 541 -180 541 C-180 541.99 -180 542.98 -180 544 C-180.66 544 -181.32 544 -182 544 C-182.33 546.97 -182.66 549.94 -183 553 C-183.66 553 -184.32 553 -185 553 C-185 554.32 -185 555.64 -185 557 C-185.66 557 -186.32 557 -187 557 C-187 558.65 -187 560.3 -187 562 C-187.66 562 -188.32 562 -189 562 C-189 563.32 -189 564.64 -189 566 C-189.66 566 -190.32 566 -191 566 C-191.33 568.97 -191.66 571.94 -192 575 C-192.66 575 -193.32 575 -194 575 C-194 576.65 -194 578.3 -194 580 C-194.66 580 -195.32 580 -196 580 C-196 581.32 -196 582.64 -196 584 C-196.66 584 -197.32 584 -198 584 C-198 585.65 -198 587.3 -198 589 C-198.66 589 -199.32 589 -200 589 C-200.33 592.3 -200.66 595.6 -201 599 C-201.66 599 -202.32 599 -203 599 C-203 599.99 -203 600.98 -203 602 C-203.66 602 -204.32 602 -205 602 C-205 603.98 -205 605.96 -205 608 C-205.66 608 -206.32 608 -207 608 C-207 608.99 -207 609.98 -207 611 C-207.66 611 -208.32 611 -209 611 C-209 612.98 -209 614.96 -209 617 C-209.66 617 -210.32 617 -211 617 C-211.33 619.97 -211.66 622.94 -212 626 C-212.66 626 -213.32 626 -214 626 C-214 626.99 -214 627.98 -214 629 C-214.66 629 -215.32 629 -216 629 C-216 630.98 -216 632.96 -216 635 C-216.66 635 -217.32 635 -218 635 C-218 636.65 -218 638.3 -218 640 C-218.66 640 -219.32 640 -220 640 C-220.33 642.97 -220.66 645.94 -221 649 C-221.66 649 -222.32 649 -223 649 C-223 650.32 -223 651.64 -223 653 C-223.66 653 -224.32 653 -225 653 C-225 654.65 -225 656.3 -225 658 C-225.66 658 -226.32 658 -227 658 C-227 659.98 -227 661.96 -227 664 C-227.66 664 -228.32 664 -229 664 C-229.33 666.97 -229.66 669.94 -230 673 C-230.66 673 -231.32 673 -232 673 C-232 673.99 -232 674.98 -232 676 C-232.66 676 -233.32 676 -234 676 C-234 677.98 -234 679.96 -234 682 C-234.66 682 -235.32 682 -236 682 C-236 683.65 -236 685.3 -236 687 C-236.66 687 -237.32 687 -238 687 C-238 688.32 -238 689.64 -238 691 C-238.66 691 -239.32 691 -240 691 C-240.33 694.63 -240.66 698.26 -241 702 C-241.66 702 -242.32 702 -243 702 C-243 702.99 -243 703.98 -243 705 C-243.66 705 -244.32 705 -245 705 C-245 706.98 -245 708.96 -245 711 C-245.66 711 -246.32 711 -247 711 C-247 712.65 -247 714.3 -247 716 C-247.66 716 -248.32 716 -249 716 C-249.33 718.97 -249.66 721.94 -250 725 C-250.66 725 -251.32 725 -252 725 C-252 726.98 -252 728.96 -252 731 C-252.66 731 -253.32 731 -254 731 C-254 731.99 -254 732.98 -254 734 C-252.35 733.67 -250.7 733.34 -249 733 C-249 732.34 -249 731.68 -249 731 C-247.02 731 -245.04 731 -243 731 C-243 730.34 -243 729.68 -243 729 C-242.01 729 -241.02 729 -240 729 C-240 728.34 -240 727.68 -240 727 C-238.68 727 -237.36 727 -236 727 C-236 726.34 -236 725.68 -236 725 C-232.37 724.67 -228.74 724.34 -225 724 C-225 723.34 -225 722.68 -225 722 C-223.68 722 -222.36 722 -221 722 C-221 721.34 -221 720.68 -221 720 C-219.35 720 -217.7 720 -216 720 C-216 719.34 -216 718.68 -216 718 C-214.35 718 -212.7 718 -211 718 C-211 717.34 -211 716.68 -211 716 C-207.7 715.67 -204.4 715.34 -201 715 C-201 714.34 -201 713.68 -201 713 C-199.35 713 -197.7 713 -196 713 C-196 712.34 -196 711.68 -196 711 C-187.24542868 708.37570315 -178.51218081 705.7749428 -169.61328125 703.67578125 C-166.94877943 703.02233263 -166.94877943 703.02233263 -164.20385742 702.04321289 C-149.08263269 697.11956789 -132.47775146 694.86481201 -116.75 692.75 C-115.64269531 692.59934082 -114.53539062 692.44868164 -113.39453125 692.29345703 C-92.42840461 689.62465884 -71.49932211 688.6172846 -50.375 688.6875 C-48.60784637 688.69073273 -48.60784637 688.69073273 -46.80499268 688.69403076 C-28.35325645 688.74798412 -10.28425788 689.34362144 8 692 C9.38395121 692.19531687 10.76790305 692.3906292 12.15185547 692.5859375 C64.73782279 700.12027522 146.14994858 712.03733974 185 751 C186.19140625 753.1640625 186.19140625 753.1640625 187 755 C185.33311153 756.66688847 183.30100432 756.16831893 181.0078125 756.2109375 C179.38927368 756.25009277 179.38927368 756.25009277 177.73803711 756.29003906 C176.54573486 756.31807617 175.35343262 756.34611328 174.125 756.375 C99.62370123 758.66838539 26.81911984 775.56589308 -44 798 C-44.6959729 798.21938232 -45.3919458 798.43876465 -46.10900879 798.66479492 C-82.34398257 810.09194286 -117.68697924 823.97376356 -152.6211853 838.86273193 C-157.84514254 841.08901581 -163.07800318 843.2915468 -168.32421875 845.46484375 C-234.76930237 873.01212171 -299.66855494 903.44130231 -361.12988281 940.94458008 C-390.09126516 958.5575017 -425.31760135 968.3995701 -459.19140625 961.03125 C-477.79564617 955.99379427 -492.42880153 945.87080981 -502.75 929.3125 C-511.85113629 912.83775792 -514.59153219 894.59864234 -514.4375 876.0625 C-514.43512329 875.30464203 -514.43274658 874.54678406 -514.43029785 873.76596069 C-514.36424084 860.22160894 -513.02020384 847.22859418 -510 834 C-509.80792969 833.15743652 -509.61585938 832.31487305 -509.41796875 831.44677734 C-508.36837468 826.93869943 -507.23357227 822.46185715 -506 818 C-505.34 818 -504.68 818 -504 818 C-504 816.02 -504 814.04 -504 812 C-503.34 812 -502.68 812 -502 812 C-501.87625 810.7625 -501.7525 809.525 -501.625 808.25 C-501.24253695 805.1237803 -500.69450477 802.71120763 -499 800 C-498.34 800 -497.68 800 -497 800 C-497 798.68 -497 797.36 -497 796 C-496.34 796 -495.68 796 -495 796 C-495 794.35 -495 792.7 -495 791 C-494.34 791 -493.68 791 -493 791 C-493 789.68 -493 788.36 -493 787 C-492.34 787 -491.68 787 -491 787 C-490.67 784.69 -490.34 782.38 -490 780 C-489.34 780 -488.68 780 -488 780 C-488 778.02 -488 776.04 -488 774 C-487.34 774 -486.68 774 -486 774 C-486 773.01 -486 772.02 -486 771 C-485.34 771 -484.68 771 -484 771 C-484 769.68 -484 768.36 -484 767 C-483.34 767 -482.68 767 -482 767 C-481.67 764.03 -481.34 761.06 -481 758 C-480.34 758 -479.68 758 -479 758 C-479 756.68 -479 755.36 -479 754 C-478.34 754 -477.68 754 -477 754 C-477 753.01 -477 752.02 -477 751 C-476.34 751 -475.68 751 -475 751 C-475 749.68 -475 748.36 -475 747 C-474.34 747 -473.68 747 -473 747 C-472.67 744.03 -472.34 741.06 -472 738 C-471.34 738 -470.68 738 -470 738 C-470 736.68 -470 735.36 -470 734 C-469.34 734 -468.68 734 -468 734 C-468 733.01 -468 732.02 -468 731 C-467.34 731 -466.68 731 -466 731 C-466 729.68 -466 728.36 -466 727 C-465.34 727 -464.68 727 -464 727 C-464 725.35 -464 723.7 -464 722 C-463.34 722 -462.68 722 -462 722 C-461.67 719.69 -461.34 717.38 -461 715 C-460.34 715 -459.68 715 -459 715 C-459 713.68 -459 712.36 -459 711 C-458.34 711 -457.68 711 -457 711 C-457 709.68 -457 708.36 -457 707 C-456.34 707 -455.68 707 -455 707 C-455 705.35 -455 703.7 -455 702 C-454.34 702 -453.68 702 -453 702 C-452.67 699.69 -452.34 697.38 -452 695 C-451.34 695 -450.68 695 -450 695 C-450 693.68 -450 692.36 -450 691 C-449.34 691 -448.68 691 -448 691 C-448 689.68 -448 688.36 -448 687 C-447.34 687 -446.68 687 -446 687 C-446 686.01 -446 685.02 -446 684 C-445.34 684 -444.68 684 -444 684 C-443.67 681.03 -443.34 678.06 -443 675 C-442.34 675 -441.68 675 -441 675 C-441 673.68 -441 672.36 -441 671 C-440.34 671 -439.68 671 -439 671 C-439 669.68 -439 668.36 -439 667 C-438.34 667 -437.68 667 -437 667 C-437 666.01 -437 665.02 -437 664 C-436.34 664 -435.68 664 -435 664 C-435 662.68 -435 661.36 -435 660 C-434.34 660 -433.68 660 -433 660 C-432.67 657.03 -432.34 654.06 -432 651 C-431.34 651 -430.68 651 -430 651 C-430 649.68 -430 648.36 -430 647 C-429.34 647 -428.68 647 -428 647 C-428 646.01 -428 645.02 -428 644 C-427.34 644 -426.68 644 -426 644 C-426 642.68 -426 641.36 -426 640 C-425.34 640 -424.68 640 -424 640 C-423.67 637.69 -423.34 635.38 -423 633 C-422.34 633 -421.68 633 -421 633 C-421 631.68 -421 630.36 -421 629 C-420.34 629 -419.68 629 -419 629 C-419 627.35 -419 625.7 -419 624 C-418.34 624 -417.68 624 -417 624 C-417 622.68 -417 621.36 -417 620 C-416.34 620 -415.68 620 -415 620 C-414.67 617.69 -414.34 615.38 -414 613 C-413.34 613 -412.68 613 -412 613 C-412 611.68 -412 610.36 -412 609 C-411.34 609 -410.68 609 -410 609 C-410 608.01 -410 607.02 -410 606 C-409.34 606 -408.68 606 -408 606 C-408 604.68 -408 603.36 -408 602 C-407.34 602 -406.68 602 -406 602 C-406 601.01 -406 600.02 -406 599 C-405.34 599 -404.68 599 -404 599 C-403.67 595.7 -403.34 592.4 -403 589 C-402.34 589 -401.68 589 -401 589 C-401 588.01 -401 587.02 -401 586 C-400.34 586 -399.68 586 -399 586 C-399 584.68 -399 583.36 -399 582 C-398.34 582 -397.68 582 -397 582 C-397 581.01 -397 580.02 -397 579 C-396.34 579 -395.68 579 -395 579 C-394.67 576.36 -394.34 573.72 -394 571 C-393.34 571 -392.68 571 -392 571 C-392 570.01 -392 569.02 -392 568 C-391.34 568 -390.68 568 -390 568 C-390 566.68 -390 565.36 -390 564 C-389.34 564 -388.68 564 -388 564 C-388 562.35 -388 560.7 -388 559 C-387.34 559 -386.68 559 -386 559 C-385.67 556.36 -385.34 553.72 -385 551 C-384.34 551 -383.68 551 -383 551 C-383 550.01 -383 549.02 -383 548 C-382.34 548 -381.68 548 -381 548 C-381 546.68 -381 545.36 -381 544 C-380.34 544 -379.68 544 -379 544 C-379 543.01 -379 542.02 -379 541 C-378.34 541 -377.68 541 -377 541 C-377 539.68 -377 538.36 -377 537 C-376.34 537 -375.68 537 -375 537 C-374.67 534.03 -374.34 531.06 -374 528 C-373.34 528 -372.68 528 -372 528 C-372 526.68 -372 525.36 -372 524 C-371.34 524 -370.68 524 -370 524 C-370 523.01 -370 522.02 -370 521 C-369.34 521 -368.68 521 -368 521 C-368 519.68 -368 518.36 -368 517 C-367.34 517 -366.68 517 -366 517 C-365.67 514.69 -365.34 512.38 -365 510 C-364.34 510 -363.68 510 -363 510 C-363 508.68 -363 507.36 -363 506 C-362.34 506 -361.68 506 -361 506 C-361 504.35 -361 502.7 -361 501 C-360.34 501 -359.68 501 -359 501 C-359 499.68 -359 498.36 -359 497 C-358.34 497 -357.68 497 -357 497 C-356.67 494.69 -356.34 492.38 -356 490 C-355.34 490 -354.68 490 -354 490 C-354 488.68 -354 487.36 -354 486 C-353.34 486 -352.68 486 -352 486 C-352 485.01 -352 484.02 -352 483 C-351.34 483 -350.68 483 -350 483 C-350 481.68 -350 480.36 -350 479 C-349.34 479 -348.68 479 -348 479 C-348 477.02 -348 475.04 -348 473 C-347.34 473 -346.68 473 -346 473 C-345.67 470.69 -345.34 468.38 -345 466 C-344.34 466 -343.68 466 -343 466 C-343 465.01 -343 464.02 -343 463 C-342.34 463 -341.68 463 -341 463 C-341 461.68 -341 460.36 -341 459 C-340.34 459 -339.68 459 -339 459 C-339 457.68 -339 456.36 -339 455 C-338.34 455 -337.68 455 -337 455 C-336.67 452.69 -336.34 450.38 -336 448 C-335.34 448 -334.68 448 -334 448 C-334 446.35 -334 444.7 -334 443 C-333.34 443 -332.68 443 -332 443 C-332 441.68 -332 440.36 -332 439 C-331.34 439 -330.68 439 -330 439 C-330 437.68 -330 436.36 -330 435 C-329.34 435 -328.68 435 -328 435 C-327.67 432.69 -327.34 430.38 -327 428 C-326.34 428 -325.68 428 -325 428 C-325 427.01 -325 426.02 -325 425 C-324.34 425 -323.68 425 -323 425 C-323 423.68 -323 422.36 -323 421 C-322.34 421 -321.68 421 -321 421 C-321 419.68 -321 418.36 -321 417 C-320.34 417 -319.68 417 -319 417 C-319 415.35 -319 413.7 -319 412 C-318.34 412 -317.68 412 -317 412 C-316.67 409.69 -316.34 407.38 -316 405 C-315.34 405 -314.68 405 -314 405 C-314 403.68 -314 402.36 -314 401 C-313.34 401 -312.68 401 -312 401 C-312 399.68 -312 398.36 -312 397 C-311.34 397 -310.68 397 -310 397 C-310 396.01 -310 395.02 -310 394 C-309.34 394 -308.68 394 -308 394 C-307.67 391.36 -307.34 388.72 -307 386 C-306.34 386 -305.68 386 -305 386 C-305 384.35 -305 382.7 -305 381 C-304.34 381 -303.68 381 -303 381 C-303 379.68 -303 378.36 -303 377 C-302.34 377 -301.68 377 -301 377 C-301 376.01 -301 375.02 -301 374 C-300.34 374 -299.68 374 -299 374 C-298.67 371.36 -298.34 368.72 -298 366 C-297.34 366 -296.68 366 -296 366 C-296 365.01 -296 364.02 -296 363 C-295.34 363 -294.68 363 -294 363 C-294 361.68 -294 360.36 -294 359 C-293.34 359 -292.68 359 -292 359 C-292 358.01 -292 357.02 -292 356 C-291.34 356 -290.68 356 -290 356 C-290 354.68 -290 353.36 -290 352 C-289.34 352 -288.68 352 -288 352 C-287.67 349.03 -287.34 346.06 -287 343 C-286.34 343 -285.68 343 -285 343 C-285 341.68 -285 340.36 -285 339 C-284.34 339 -283.68 339 -283 339 C-283 338.01 -283 337.02 -283 336 C-282.34 336 -281.68 336 -281 336 C-281 334.68 -281 333.36 -281 332 C-280.34 332 -279.68 332 -279 332 C-278.67 329.69 -278.34 327.38 -278 325 C-277.34 325 -276.68 325 -276 325 C-276 323.68 -276 322.36 -276 321 C-275.34 321 -274.68 321 -274 321 C-274 320.01 -274 319.02 -274 318 C-273.34 318 -272.68 318 -272 318 C-272 316.68 -272 315.36 -272 314 C-271.34 314 -270.68 314 -270 314 C-269.67 311.69 -269.34 309.38 -269 307 C-268.34 307 -267.68 307 -267 307 C-267 305.68 -267 304.36 -267 303 C-266.34 303 -265.68 303 -265 303 C-265 301.35 -265 299.7 -265 298 C-264.34 298 -263.68 298 -263 298 C-263 296.68 -263 295.36 -263 294 C-262.34 294 -261.68 294 -261 294 C-261 292.68 -261 291.36 -261 290 C-260.34 290 -259.68 290 -259 290 C-258.67 287.69 -258.34 285.38 -258 283 C-257.34 283 -256.68 283 -256 283 C-256 281.68 -256 280.36 -256 279 C-255.34 279 -254.68 279 -254 279 C-254 278.01 -254 277.02 -254 276 C-253.34 276 -252.68 276 -252 276 C-252 274.68 -252 273.36 -252 272 C-251.34 272 -250.68 272 -250 272 C-249.67 269.69 -249.34 267.38 -249 265 C-248.34 265 -247.68 265 -247 265 C-247 263.68 -247 262.36 -247 261 C-246.34 261 -245.68 261 -245 261 C-245 260.01 -245 259.02 -245 258 C-244.34 258 -243.68 258 -243 258 C-243 256.68 -243 255.36 -243 254 C-242.34 254 -241.68 254 -241 254 C-240.67 251.69 -240.34 249.38 -240 247 C-239.34 247 -238.68 247 -238 247 C-238 245.68 -238 244.36 -238 243 C-237.34 243 -236.68 243 -236 243 C-236 242.01 -236 241.02 -236 240 C-235.34 240 -234.68 240 -234 240 C-234 238.68 -234 237.36 -234 236 C-233.34 236 -232.68 236 -232 236 C-232 234.68 -232 233.36 -232 232 C-231.34 232 -230.68 232 -230 232 C-229.67 229.69 -229.34 227.38 -229 225 C-228.34 225 -227.68 225 -227 225 C-227 223.68 -227 222.36 -227 221 C-226.34 221 -225.68 221 -225 221 C-225 220.01 -225 219.02 -225 218 C-224.34 218 -223.68 218 -223 218 C-223 216.68 -223 215.36 -223 214 C-222.34 214 -221.68 214 -221 214 C-220.67 211.69 -220.34 209.38 -220 207 C-219.34 207 -218.68 207 -218 207 C-218 205.68 -218 204.36 -218 203 C-217.34 203 -216.68 203 -216 203 C-216 202.01 -216 201.02 -216 200 C-215.34 200 -214.68 200 -214 200 C-214 198.68 -214 197.36 -214 196 C-213.34 196 -212.68 196 -212 196 C-211.67 194.35 -211.34 192.7 -211 191 C-210.34 191 -209.68 191 -209 191 C-209 189.68 -209 188.36 -209 187 C-208.34 187 -207.68 187 -207 187 C-207 185.68 -207 184.36 -207 183 C-206.34 183 -205.68 183 -205 183 C-205 182.01 -205 181.02 -205 180 C-204.34 180 -203.68 180 -203 180 C-203 179.34 -203 178.68 -203 178 C-202.34 178 -201.68 178 -201 178 C-200.67 175.69 -200.34 173.38 -200 171 C-199.34 171 -198.68 171 -198 171 C-198 169.68 -198 168.36 -198 167 C-197.34 167 -196.68 167 -196 167 C-196 165.68 -196 164.36 -196 163 C-194.68 162.67 -193.36 162.34 -192 162 C-191.67 159.36 -191.34 156.72 -191 154 C-189.68 153.67 -188.36 153.34 -187 153 C-187 151.68 -187 150.36 -187 149 C-186.34 149 -185.68 149 -185 149 C-185 147.68 -185 146.36 -185 145 C-184.34 144.67 -183.68 144.34 -183 144 C-182.34786708 141.97536745 -182.34786708 141.97536745 -182 140 C-181.34 140 -180.68 140 -180 140 C-180 138.68 -180 137.36 -180 136 C-179.34 136 -178.68 136 -178 136 C-178 135.34 -178 134.68 -178 134 C-177.34 134 -176.68 134 -176 134 C-176 133.01 -176 132.02 -176 131 C-175.34 131 -174.68 131 -174 131 C-174 130.34 -174 129.68 -174 129 C-173.34 129 -172.68 129 -172 129 C-171.67 127.35 -171.34 125.7 -171 124 C-170.34 124 -169.68 124 -169 124 C-169 122.68 -169 121.36 -169 120 C-168.34 120 -167.68 120 -167 120 C-167 118.68 -167 117.36 -167 116 C-165.68 115.67 -164.36 115.34 -163 115 C-162.67 113.02 -162.34 111.04 -162 109 C-161.34 109 -160.68 109 -160 109 C-160 108.34 -160 107.68 -160 107 C-159.34 107 -158.68 107 -158 107 C-158 106.01 -158 105.02 -158 104 C-157.34 104 -156.68 104 -156 104 C-156 103.34 -156 102.68 -156 102 C-155.34 102 -154.68 102 -154 102 C-153.67 100.02 -153.34 98.04 -153 96 C-152.34 96 -151.68 96 -151 96 C-151 95.01 -151 94.02 -151 93 C-150.34 93 -149.68 93 -149 93 C-149 92.34 -149 91.68 -149 91 C-148.34 91 -147.68 91 -147 91 C-147 90.34 -147 89.68 -147 89 C-146.34 89 -145.68 89 -145 89 C-145 88.01 -145 87.02 -145 86 C-144.34 86 -143.68 86 -143 86 C-142.67 84.68 -142.34 83.36 -142 82 C-141.34 82 -140.68 82 -140 82 C-140 80.68 -140 79.36 -140 78 C-139.34 78 -138.68 78 -138 78 C-138 77.34 -138 76.68 -138 76 C-136.68 75.67 -135.36 75.34 -134 75 C-133.67 73.02 -133.34 71.04 -133 69 C-132.34 69 -131.68 69 -131 69 C-131 68.34 -131 67.68 -131 67 C-129.68 66.67 -128.36 66.34 -127 66 C-127 65.34 -127 64.68 -127 64 C-126.34 64 -125.68 64 -125 64 C-124.67 62.68 -124.34 61.36 -124 60 C-123.34 60 -122.68 60 -122 60 C-122 59.01 -122 58.02 -122 57 C-121.34 57 -120.68 57 -120 57 C-120 56.34 -120 55.68 -120 55 C-119.34 55 -118.68 55 -118 55 C-118 54.34 -118 53.68 -118 53 C-117.34 53 -116.68 53 -116 53 C-116 52.34 -116 51.68 -116 51 C-115.34 51 -114.68 51 -114 51 C-113.67 49.68 -113.34 48.36 -113 47 C-111.68 46.67 -110.36 46.34 -109 46 C-109 45.34 -109 44.68 -109 44 C-108.34 44 -107.68 44 -107 44 C-107 43.34 -107 42.68 -107 42 C-106.34 42 -105.68 42 -105 42 C-104.67 40.68 -104.34 39.36 -104 38 C-102.68 37.67 -101.36 37.34 -100 37 C-100 36.34 -100 35.68 -100 35 C-99.34 35 -98.68 35 -98 35 C-98 34.34 -98 33.68 -98 33 C-97.34 33 -96.68 33 -96 33 C-96 32.34 -96 31.68 -96 31 C-95.01 31 -94.02 31 -93 31 C-93 30.34 -93 29.68 -93 29 C-91.02 28.505 -91.02 28.505 -89 28 C-89 27.34 -89 26.68 -89 26 C-88.34 26 -87.68 26 -87 26 C-87 25.34 -87 24.68 -87 24 C-86.34 24 -85.68 24 -85 24 C-85 23.34 -85 22.68 -85 22 C-84.01 22 -83.02 22 -82 22 C-82 21.34 -82 20.68 -82 20 C-81.34 20 -80.68 20 -80 20 C-80 19.34 -80 18.68 -80 18 C-79.360625 17.87625 -78.72125 17.7525 -78.0625 17.625 C-77.381875 17.41875 -76.70125 17.2125 -76 17 C-75.67 16.34 -75.34 15.68 -75 15 C-73.68 15 -72.36 15 -71 15 C-71 14.34 -71 13.68 -71 13 C-69.68 13 -68.36 13 -67 13 C-66.67 11.68 -66.34 10.36 -66 9 C-63.36 8.67 -60.72 8.34 -58 8 C-58 7.34 -58 6.68 -58 6 C-56.35 6 -54.7 6 -53 6 C-53 5.34 -53 4.68 -53 4 C-51.02 4 -49.04 4 -47 4 C-47 3.34 -47 2.68 -47 2 C-45.35 2 -43.7 2 -42 2 C-42 1.34 -42 0.68 -42 0 C-27.8996759 -1.10590777 -14.1096553 -1.31252607 0 0 Z " fill="#E7EBF5" transform="translate(817,237)"/>
<path d="M0 0 C2.31 0 4.62 0 7 0 C7 0.33 7 0.66 7 1 C4.69 1 2.38 1 0 1 C0 0.67 0 0.34 0 0 Z " fill="#FFFFFF" transform="translate(758,922)"/>
<path d="M0 0 C4 1 4 1 4 1 Z " fill="#FFFFFF" transform="translate(855,931)"/>
<path d="M0 0 C4 1 4 1 4 1 Z " fill="#FFFFFF" transform="translate(808,924)"/>
<path d="M0 0 C3 1 3 1 3 1 Z " fill="#FFFFFF" transform="translate(895,940)"/>
<path d="M0 0 C3 1 3 1 3 1 Z " fill="#FFFFFF" transform="translate(891,939)"/>
<path d="M0 0 C3 1 3 1 3 1 Z " fill="#FFFFFF" transform="translate(887,938)"/>
<path d="M0 0 C3 1 3 1 3 1 Z " fill="#FFFFFF" transform="translate(883,937)"/>
<path d="M0 0 C3 1 3 1 3 1 Z " fill="#FFFFFF" transform="translate(879,936)"/>
<path d="M0 0 C3 1 3 1 3 1 Z " fill="#FFFFFF" transform="translate(861,932)"/>
<path d="M0 0 C2 1 2 1 2 1 Z " fill="#FFFFFF" transform="translate(973,967)"/>
<path d="M0 0 C2 1 2 1 2 1 Z " fill="#FFFFFF" transform="translate(899,941)"/>
<path d="M0 0 C2 1 2 1 2 1 Z " fill="#FFFFFF" transform="translate(875,935)"/>
<path d="M0 0 C2 1 2 1 2 1 Z " fill="#FFFFFF" transform="translate(871,934)"/>
<path d="M0 0 C2 1 2 1 2 1 Z " fill="#FFFFFF" transform="translate(866,933)"/>
<path d="M0 0 C2 1 2 1 2 1 Z " fill="#FFFFFF" transform="translate(851,930)"/>
<path d="M0 0 C2 1 2 1 2 1 Z " fill="#FFFFFF" transform="translate(839,928)"/>
<path d="M0 0 C2 1 2 1 2 1 Z " fill="#FFFFFF" transform="translate(832,927)"/>
<path d="" fill="#FFFFFF" transform="translate(0,0)"/>
<path d="" fill="#FFFFFF" transform="translate(0,0)"/>
<path d="" fill="#FFFFFF" transform="translate(0,0)"/>
<path d="" fill="#FFFFFF" transform="translate(0,0)"/>
<path d="" fill="#FFFFFF" transform="translate(0,0)"/>
<path d="" fill="#FFFFFF" transform="translate(0,0)"/>
<path d="" fill="#FFFFFF" transform="translate(0,0)"/>
<path d="" fill="#FFFFFF" transform="translate(0,0)"/>
</svg>
